<?xml version="1.0" encoding="UTF-8" standalone="no"?>
<!DOCTYPE svg PUBLIC "-//W3C//DTD SVG 1.1//EN" "http://www.w3.org/Graphics/SVG/1.1/DTD/svg11.dtd">
<svg width="100%" height="100%" viewBox="0 0 768 768" version="1.1" xmlns="http://www.w3.org/2000/svg" xmlns:xlink="http://www.w3.org/1999/xlink" xml:space="preserve" xmlns:serif="http://www.serif.com/" style="fill-rule:evenodd;clip-rule:evenodd;stroke-linejoin:round;stroke-miterlimit:2;">
    <g transform="matrix(1.03162,0,0,1,-181.667,-33.6579)">
        <path d="M414.503,754.373C337.041,754.373 264.797,714.092 222.359,647.239C179.921,580.387 173.007,495.97 203.97,422.72L333.869,115.414C342.674,94.584 362.558,81.07 384.586,80.944C406.613,80.818 426.641,94.105 435.669,114.834L707.677,739.395C709.109,742.683 708.828,746.494 706.93,749.52C705.033,752.546 701.777,754.373 698.284,754.373L414.503,754.373Z" style="fill:rgb(163,113,158);"/>
    </g>
    <g transform="matrix(-1.03162,0,0,1,950.667,-33.6579)">
        <path d="M414.503,754.373L698.284,754.373C701.777,754.373 705.033,752.546 706.93,749.52C708.828,746.494 709.109,742.683 707.677,739.395L435.669,114.834C426.641,94.105 406.613,80.818 384.586,80.944C362.558,81.07 342.674,94.584 333.869,115.414L203.97,422.72C173.007,495.97 179.921,580.387 222.359,647.239C264.797,714.092 337.041,754.373 414.503,754.373Z" style="fill:rgb(230,208,251);fill-opacity:0.57;"/>
    </g>
</svg>
